HIERARCHY
ROOT hip
{
	OFFSET 0.000000 0.000000 0.000000 
	CHANNELS 6 Xposition Yposition Zposition Xrotation Zrotation Yrotation
	JOINT abdomen
	{
		OFFSET 0.000000 3.402643 0.000000 
		CHANNELS 3 Xrotation Zrotation Yrotation
		JOINT chest
		{
			OFFSET 0.000000 8.438565 -0.680529 
			CHANNELS 3 Xrotation Zrotation Yrotation
			JOINT neck
			{
				OFFSET 0.000000 10.207942 -0.272212 
				CHANNELS 3 Xrotation Zrotation Yrotation
				JOINT head
				{
					OFFSET 0.000000 3.130431 0.000000 
					CHANNELS 3 Xrotation Zrotation Yrotation
					End Site
					{
						OFFSET 0.000000 3.130435 0.000000 
					}
				}
			}
			JOINT lCollar
			{
				OFFSET 3.470700 6.669187 -0.816635 
				CHANNELS 3 Zrotation Yrotation Xrotation
				JOINT lShldr
				{
					OFFSET 3.198488 0.000000 0.000000 
					CHANNELS 3 Zrotation Yrotation Xrotation
					JOINT lForeArm
					{
						OFFSET 10.139888 0.000000 0.000000 
						CHANNELS 3 Yrotation Zrotation Xrotation
						JOINT lHand
						{
							OFFSET 8.370511 0.000000 0.000000 
							CHANNELS 3 Zrotation Yrotation Xrotation
							End Site
							{
								OFFSET 4.083176 0.000000 0.000000 
							}
						}
					}
				}
			}
			JOINT rCollar
			{
				OFFSET -3.470700 6.669187 -0.816635 
				CHANNELS 3 Zrotation Yrotation Xrotation
				JOINT rShldr
				{
					OFFSET -3.198488 0.000000 0.000000 
					CHANNELS 3 Zrotation Yrotation Xrotation
					JOINT rForeArm
					{
						OFFSET -10.139888 0.000000 0.000000 
						CHANNELS 3 Yrotation Zrotation Xrotation
						JOINT rHand
						{
							OFFSET -8.370511 0.000000 0.000000 
							CHANNELS 3 Zrotation Yrotation Xrotation
							End Site
							{
								OFFSET -4.083176 0.000000 0.000000 
							}
						}
					}
				}
			}
		}
	}
	JOINT lThigh
	{
		OFFSET 5.308129 -1.633274 1.361059 
		CHANNELS 3 Xrotation Zrotation Yrotation
		JOINT lShin
		{
			OFFSET -2.041588 -20.007561 0.000000 
			CHANNELS 3 Xrotation Zrotation Yrotation
			JOINT lFoot
			{
				OFFSET 0.000000 -19.190928 -1.224953 
				CHANNELS 3 Xrotation Yrotation Zrotation
				End Site
				{
					OFFSET 0.000000 -2.449906 4.627600 
				}
			}
		}
	}
	JOINT rThigh
	{
		OFFSET -5.308129 -1.633274 1.361059 
		CHANNELS 3 Xrotation Zrotation Yrotation
		JOINT rShin
		{
			OFFSET 2.041588 -20.007561 0.000000 
			CHANNELS 3 Xrotation Zrotation Yrotation
			JOINT rFoot
			{
				OFFSET 0.000000 -19.190928 -1.224953 
				CHANNELS 3 Xrotation Yrotation Zrotation
				End Site
				{
					OFFSET 0.000000 -2.449906 4.627600 
				}
			}
		}
	}
}
MOTION
Frames: 11
Frame Time: 0.016667
-13.275189 42.145813 2.279003 21.075558 -19.186337 49.679890 58.622395 -5.894817 -3.597497 6.487205 -4.150421 15.454561 -27.215477 -5.949261 3.018564 -14.780129 -1.506374 -40.886406 -17.425024 2.325642 -1.655526 -65.099297 -25.053656 19.296961 -106.088829 -5.000000 -9.763296 -27.407019 -9.784051 45.000000 -20.261171 36.143047 -11.432197 90.119987 51.409966 45.847496 39.968552 -1.898966 -4.157549 32.868935 -12.567467 42.587349 -85.208824 -13.109271 -30.982063 44.840771 -10.000000 -16.181301 -11.869706 -21.566076 -30.924231 -13.834342 6.025629 -28.623854 58.712914 7.148719 13.105230 -57.185402 -13.817595 -9.794810 
-13.364367 42.063080 2.153906 20.541586 -18.746477 49.041042 58.648525 -5.965580 -3.880186 6.277452 -4.385611 15.036993 -27.254517 -6.070085 3.067348 -14.553123 -1.792925 -41.743851 -17.190981 2.341699 -1.636792 -64.795631 -24.576159 18.397554 -106.248985 -5.000000 -9.880577 -27.014898 -9.803753 45.000000 -20.046444 35.867619 -11.233113 90.099632 50.540970 45.841888 42.341175 -0.858112 -2.701589 32.608330 -12.710057 42.150612 -84.860603 -12.449504 -30.860952 45.073219 -10.000000 -16.166124 -11.188451 -21.844055 -30.844629 -13.168308 5.801727 -28.012056 59.106457 7.383010 13.714027 -58.093586 -12.695198 -9.602129 
-13.376605 42.021263 1.996708 19.844009 -17.775450 47.806015 58.679848 -6.388626 -4.200345 6.179501 -4.570376 14.863129 -27.289011 -6.124918 3.096332 -14.424392 -1.983523 -42.179562 -16.986443 2.375543 -1.626370 -64.713356 -24.490191 18.194504 -105.489830 -5.000000 -9.366247 -26.935852 -9.603081 45.000000 -19.566229 35.637821 -10.878976 90.098961 50.511681 45.842209 43.352409 0.380540 -1.313970 32.586304 -12.858578 41.953159 -83.928986 -11.634960 -30.918215 45.435295 -10.000000 -16.198128 -10.452127 -21.967638 -30.237238 -11.837678 5.567405 -27.372759 59.198418 7.176141 13.354678 -59.079960 -11.543949 -8.726522 
-13.337539 42.006733 1.818105 19.015284 -16.466099 46.173801 58.715996 -7.028250 -4.583129 6.165167 -4.724771 14.835434 -27.319866 -6.133050 3.107385 -14.382765 -2.094766 -42.320301 -16.811287 2.417901 -1.621291 -64.778923 -24.669254 18.469149 -104.126556 -5.000000 -8.443484 -27.057589 -9.250567 45.000000 -18.909994 35.425449 -10.434525 90.109634 50.970592 45.844727 43.434410 1.701039 0.085316 32.731579 -13.007843 41.909809 -82.634003 -10.739863 -31.100945 45.917942 -9.999926 -16.237379 -9.604601 -21.987762 -29.245173 -10.099828 5.254326 -26.734669 59.152702 6.707737 12.442780 -60.023148 -10.321785 -7.356056 
-13.278984 42.012993 1.646334 18.043116 -15.124520 44.433403 58.694622 -7.680691 -4.935215 6.136735 -4.840472 14.827284 -27.293724 -6.170107 3.122817 -14.273985 -2.159081 -42.341984 -16.674564 2.412400 -1.605665 -64.788689 -24.833387 18.755033 -102.597839 -5.000000 -7.416926 -27.131184 -8.947320 45.000000 -18.342598 35.214169 -10.055141 90.121849 51.488071 45.846634 43.078274 2.935451 1.405281 32.945663 -13.205780 41.980865 -81.199997 -9.774592 -31.326117 46.410000 -10.000000 -16.298639 -8.782802 -21.905432 -28.177210 -8.235432 4.980649 -25.975582 58.986088 6.238983 11.554716 -60.953552 -9.270562 -5.986665 
-13.142533 42.102394 1.501896 16.645193 -13.578348 42.268204 58.494991 -8.370598 -5.165713 6.051786 -4.801379 14.856441 -27.081366 -6.350267 3.171869 -13.951545 -2.023613 -41.829071 -16.749804 2.176425 -1.542687 -64.631424 -24.910761 19.086145 -100.404106 -5.000000 -5.926439 -27.002272 -8.874550 45.000000 -18.098166 35.065151 -9.878262 90.148064 52.571873 45.857788 41.082870 3.787805 2.500345 33.396267 -13.594882 42.541817 -79.086655 -8.598928 -31.822763 47.051422 -10.000000 -16.410181 -8.074739 -21.188204 -26.698616 -5.725728 4.725765 -24.527668 58.342445 5.969954 10.778335 -61.668842 -8.678814 -4.704016 
-13.006063 42.191818 1.357464 15.198474 -12.078241 40.081287 58.286282 -9.055077 -5.395264 5.978225 -4.752651 14.884792 -26.869230 -6.530414 3.219887 -13.629508 -1.892602 -41.326519 -16.815559 1.940881 -1.477893 -64.457535 -25.001152 19.417288 -98.254829 -5.000000 -4.526201 -26.884731 -8.795402 45.000000 -17.853687 34.916164 -9.701440 90.171997 53.528740 45.862846 39.081516 4.550116 3.647647 33.858063 -13.989565 43.091972 -77.018875 -7.409992 -32.253239 47.682690 -10.000000 -16.509825 -7.365702 -20.507692 -25.294653 -3.228959 4.413117 -23.099274 57.709682 5.678539 10.014203 -62.364662 -8.099550 -3.412472 
-12.809865 42.392929 1.297498 13.362017 -10.911172 37.910370 57.539673 -9.405317 -5.181941 5.811714 -4.696358 14.658990 -26.234282 -6.655187 3.179907 -12.696884 -1.429148 -40.698959 -16.919542 1.583072 -1.379157 -64.053932 -24.852451 19.591009 -95.377968 -5.000000 -2.827761 -26.979069 -8.927425 45.000000 -17.589197 34.689049 -9.485839 86.833069 54.838768 45.871189 37.209312 5.000000 4.727976 34.094822 -14.208355 43.733036 -74.553246 -6.185384 -32.960804 48.382206 -10.000000 -16.678806 -6.794373 -19.330574 -23.743887 -0.622800 4.256212 -21.413897 56.738014 5.766775 9.759151 -62.227661 -7.896032 -2.807504 
-12.598722 42.621994 1.258664 11.399862 -9.879319 35.734863 56.668144 -9.653506 -4.852350 5.618047 -4.640382 14.364936 -25.488359 -6.763710 3.117861 -11.606012 -0.889820 -40.035175 -17.033800 1.206755 -1.274062 -63.571411 -24.656080 19.713308 -92.401001 -5.000000 -1.198786 -27.122547 -9.125058 45.000000 -17.305939 34.451885 -9.271033 81.411186 55.997913 43.897572 35.363976 5.000000 5.843102 34.262074 -14.383101 44.405048 -72.008316 -4.919585 -33.683365 49.079914 -10.000000 -16.895241 -6.291771 -18.061108 -22.228312 2.031311 4.097815 -19.646275 55.688725 5.932813 9.621197 -61.886314 -7.742952 -2.336705 
-12.355113 42.907547 1.288678 9.262415 -8.881864 33.589069 55.714596 -9.847659 -4.466829 5.484343 -4.546559 13.982447 -24.480177 -6.720402 2.950899 -10.094379 -0.258520 -38.867691 -17.099602 0.698330 -1.133206 -63.084209 -24.285675 19.488829 -89.226952 -5.000000 0.435172 -27.289539 -9.507562 45.000000 -17.168919 33.875267 -9.038207 75.202538 57.187771 37.584759 33.909760 5.000000 6.957226 34.390949 -14.863038 44.967556 -69.128174 -3.718661 -34.303116 49.770866 -10.000000 -16.986658 -5.828016 -16.721069 -20.543905 4.802728 3.854816 -18.104134 54.566483 6.029473 9.370605 -60.981956 -7.508279 -1.885080 
-12.062813 43.277836 1.421964 6.858963 -7.918534 31.525072 54.647842 -9.978305 -4.006246 5.426896 -4.386176 13.452311 -23.048845 -6.441302 2.649019 -7.951801 0.483906 -36.944878 -17.098175 0.026283 -0.926585 -62.569450 -23.674475 18.725908 -85.719429 -5.000000 2.166690 -27.464163 -10.165698 44.136158 -17.228371 32.784107 -8.784212 67.590508 58.507710 30.037718 33.029369 5.000000 8.064301 34.411190 -15.787124 45.000000 -65.718155 -2.652797 -34.750431 50.455986 -10.000000 -16.913828 -5.434329 -15.332217 -18.594627 7.821871 3.495790 -16.855114 53.304665 6.058822 8.955597 -59.287769 -6.948804 -1.347640 
